<mxfile host="app.diagrams.net" modified="2023-12-29T08:52:24.560Z" agent="Mozilla/5.0 (Windows NT 10.0; Win64; x64) AppleWebKit/537.36 (KHTML, like Gecko) Chrome/120.0.0.0 Safari/537.36 Edg/120.0.0.0" etag="C6ArCUn_OFHXPTW8dSTL" version="22.1.15" type="github">
  <diagram name="페이지-1" id="IHk5FynDBu3439YI3nP0">
    <mxGraphModel dx="924" dy="529" grid="1" gridSize="10" guides="1" tooltips="1" connect="1" arrows="1" fold="1" page="1" pageScale="1" pageWidth="827" pageHeight="1169" math="0" shadow="0">
      <root>
        <mxCell id="0" />
        <mxCell id="1" parent="0" />
        <mxCell id="Tj-MRy4mNyoVC88zkxaC-1" value="학생" style="whiteSpace=wrap;html=1;align=center;" vertex="1" parent="1">
          <mxGeometry x="320" y="220" width="120" height="60" as="geometry" />
        </mxCell>
        <mxCell id="Tj-MRy4mNyoVC88zkxaC-2" value="이름" style="ellipse;whiteSpace=wrap;html=1;align=center;" vertex="1" parent="1">
          <mxGeometry x="400" y="340" width="100" height="40" as="geometry" />
        </mxCell>
        <mxCell id="Tj-MRy4mNyoVC88zkxaC-3" value="" style="endArrow=none;html=1;rounded=0;exitX=0.5;exitY=1;exitDx=0;exitDy=0;" edge="1" parent="1" source="Tj-MRy4mNyoVC88zkxaC-1" target="Tj-MRy4mNyoVC88zkxaC-2">
          <mxGeometry relative="1" as="geometry">
            <mxPoint x="330" y="290" as="sourcePoint" />
            <mxPoint x="490" y="290" as="targetPoint" />
          </mxGeometry>
        </mxCell>
        <mxCell id="Tj-MRy4mNyoVC88zkxaC-4" value="나이" style="ellipse;whiteSpace=wrap;html=1;align=center;" vertex="1" parent="1">
          <mxGeometry x="400" y="140" width="100" height="40" as="geometry" />
        </mxCell>
        <mxCell id="Tj-MRy4mNyoVC88zkxaC-5" value="" style="endArrow=none;html=1;rounded=0;exitX=0.5;exitY=0;exitDx=0;exitDy=0;entryX=0.06;entryY=0.725;entryDx=0;entryDy=0;entryPerimeter=0;" edge="1" parent="1" source="Tj-MRy4mNyoVC88zkxaC-1" target="Tj-MRy4mNyoVC88zkxaC-4">
          <mxGeometry relative="1" as="geometry">
            <mxPoint x="440" y="219" as="sourcePoint" />
            <mxPoint x="501" y="280" as="targetPoint" />
          </mxGeometry>
        </mxCell>
        <mxCell id="Tj-MRy4mNyoVC88zkxaC-7" value="전화번호" style="ellipse;whiteSpace=wrap;html=1;align=center;fontStyle=4;" vertex="1" parent="1">
          <mxGeometry x="270" y="140" width="100" height="40" as="geometry" />
        </mxCell>
        <mxCell id="Tj-MRy4mNyoVC88zkxaC-8" value="" style="endArrow=none;html=1;rounded=0;entryX=0.5;entryY=0;entryDx=0;entryDy=0;exitX=0.5;exitY=1;exitDx=0;exitDy=0;" edge="1" parent="1" source="Tj-MRy4mNyoVC88zkxaC-7" target="Tj-MRy4mNyoVC88zkxaC-1">
          <mxGeometry relative="1" as="geometry">
            <mxPoint x="300" y="170" as="sourcePoint" />
            <mxPoint x="460" y="170" as="targetPoint" />
          </mxGeometry>
        </mxCell>
        <mxCell id="Tj-MRy4mNyoVC88zkxaC-10" value="" style="endArrow=none;html=1;rounded=0;exitX=0.5;exitY=1;exitDx=0;exitDy=0;entryX=0.66;entryY=0.075;entryDx=0;entryDy=0;entryPerimeter=0;" edge="1" parent="1" source="Tj-MRy4mNyoVC88zkxaC-1" target="Tj-MRy4mNyoVC88zkxaC-11">
          <mxGeometry relative="1" as="geometry">
            <mxPoint x="330" y="290" as="sourcePoint" />
            <mxPoint x="300" y="390" as="targetPoint" />
          </mxGeometry>
        </mxCell>
        <mxCell id="Tj-MRy4mNyoVC88zkxaC-11" value="이메일" style="ellipse;whiteSpace=wrap;html=1;align=center;fontStyle=4;" vertex="1" parent="1">
          <mxGeometry x="270" y="340" width="100" height="40" as="geometry" />
        </mxCell>
        <mxCell id="Tj-MRy4mNyoVC88zkxaC-13" value="학생" style="swimlane;childLayout=stackLayout;horizontal=1;startSize=50;horizontalStack=0;rounded=1;fontSize=14;fontStyle=0;strokeWidth=2;resizeParent=0;resizeLast=1;shadow=0;dashed=0;align=center;arcSize=4;whiteSpace=wrap;html=1;" vertex="1" parent="1">
          <mxGeometry x="210" y="450" width="176" height="170" as="geometry" />
        </mxCell>
        <mxCell id="Tj-MRy4mNyoVC88zkxaC-14" value="+이름&lt;br&gt;+나이&lt;br&gt;+전화번호&lt;br&gt;+번호(PK)&lt;br&gt;+이메일" style="align=left;strokeColor=none;fillColor=none;spacingLeft=4;fontSize=12;verticalAlign=top;resizable=0;rotatable=0;part=1;html=1;" vertex="1" parent="Tj-MRy4mNyoVC88zkxaC-13">
          <mxGeometry y="50" width="176" height="120" as="geometry" />
        </mxCell>
        <mxCell id="Tj-MRy4mNyoVC88zkxaC-16" value="학생" style="shape=table;startSize=30;container=1;collapsible=1;childLayout=tableLayout;fixedRows=1;rowLines=0;fontStyle=1;align=center;resizeLast=1;html=1;" vertex="1" parent="1">
          <mxGeometry x="440" y="450" width="180" height="170" as="geometry" />
        </mxCell>
        <mxCell id="Tj-MRy4mNyoVC88zkxaC-17" value="" style="shape=tableRow;horizontal=0;startSize=0;swimlaneHead=0;swimlaneBody=0;fillColor=none;collapsible=0;dropTarget=0;points=[[0,0.5],[1,0.5]];portConstraint=eastwest;top=0;left=0;right=0;bottom=1;" vertex="1" parent="Tj-MRy4mNyoVC88zkxaC-16">
          <mxGeometry y="30" width="180" height="30" as="geometry" />
        </mxCell>
        <mxCell id="Tj-MRy4mNyoVC88zkxaC-18" value="PK" style="shape=partialRectangle;connectable=0;fillColor=none;top=0;left=0;bottom=0;right=0;fontStyle=1;overflow=hidden;whiteSpace=wrap;html=1;" vertex="1" parent="Tj-MRy4mNyoVC88zkxaC-17">
          <mxGeometry width="30" height="30" as="geometry">
            <mxRectangle width="30" height="30" as="alternateBounds" />
          </mxGeometry>
        </mxCell>
        <mxCell id="Tj-MRy4mNyoVC88zkxaC-19" value="번호" style="shape=partialRectangle;connectable=0;fillColor=none;top=0;left=0;bottom=0;right=0;align=left;spacingLeft=6;fontStyle=5;overflow=hidden;whiteSpace=wrap;html=1;" vertex="1" parent="Tj-MRy4mNyoVC88zkxaC-17">
          <mxGeometry x="30" width="150" height="30" as="geometry">
            <mxRectangle width="150" height="30" as="alternateBounds" />
          </mxGeometry>
        </mxCell>
        <mxCell id="Tj-MRy4mNyoVC88zkxaC-20" value="" style="shape=tableRow;horizontal=0;startSize=0;swimlaneHead=0;swimlaneBody=0;fillColor=none;collapsible=0;dropTarget=0;points=[[0,0.5],[1,0.5]];portConstraint=eastwest;top=0;left=0;right=0;bottom=0;" vertex="1" parent="Tj-MRy4mNyoVC88zkxaC-16">
          <mxGeometry y="60" width="180" height="30" as="geometry" />
        </mxCell>
        <mxCell id="Tj-MRy4mNyoVC88zkxaC-21" value="" style="shape=partialRectangle;connectable=0;fillColor=none;top=0;left=0;bottom=0;right=0;editable=1;overflow=hidden;whiteSpace=wrap;html=1;" vertex="1" parent="Tj-MRy4mNyoVC88zkxaC-20">
          <mxGeometry width="30" height="30" as="geometry">
            <mxRectangle width="30" height="30" as="alternateBounds" />
          </mxGeometry>
        </mxCell>
        <mxCell id="Tj-MRy4mNyoVC88zkxaC-22" value="이름" style="shape=partialRectangle;connectable=0;fillColor=none;top=0;left=0;bottom=0;right=0;align=left;spacingLeft=6;overflow=hidden;whiteSpace=wrap;html=1;" vertex="1" parent="Tj-MRy4mNyoVC88zkxaC-20">
          <mxGeometry x="30" width="150" height="30" as="geometry">
            <mxRectangle width="150" height="30" as="alternateBounds" />
          </mxGeometry>
        </mxCell>
        <mxCell id="Tj-MRy4mNyoVC88zkxaC-23" value="" style="shape=tableRow;horizontal=0;startSize=0;swimlaneHead=0;swimlaneBody=0;fillColor=none;collapsible=0;dropTarget=0;points=[[0,0.5],[1,0.5]];portConstraint=eastwest;top=0;left=0;right=0;bottom=0;" vertex="1" parent="Tj-MRy4mNyoVC88zkxaC-16">
          <mxGeometry y="90" width="180" height="30" as="geometry" />
        </mxCell>
        <mxCell id="Tj-MRy4mNyoVC88zkxaC-24" value="" style="shape=partialRectangle;connectable=0;fillColor=none;top=0;left=0;bottom=0;right=0;editable=1;overflow=hidden;whiteSpace=wrap;html=1;" vertex="1" parent="Tj-MRy4mNyoVC88zkxaC-23">
          <mxGeometry width="30" height="30" as="geometry">
            <mxRectangle width="30" height="30" as="alternateBounds" />
          </mxGeometry>
        </mxCell>
        <mxCell id="Tj-MRy4mNyoVC88zkxaC-25" value="나이" style="shape=partialRectangle;connectable=0;fillColor=none;top=0;left=0;bottom=0;right=0;align=left;spacingLeft=6;overflow=hidden;whiteSpace=wrap;html=1;" vertex="1" parent="Tj-MRy4mNyoVC88zkxaC-23">
          <mxGeometry x="30" width="150" height="30" as="geometry">
            <mxRectangle width="150" height="30" as="alternateBounds" />
          </mxGeometry>
        </mxCell>
        <mxCell id="Tj-MRy4mNyoVC88zkxaC-26" value="" style="shape=tableRow;horizontal=0;startSize=0;swimlaneHead=0;swimlaneBody=0;fillColor=none;collapsible=0;dropTarget=0;points=[[0,0.5],[1,0.5]];portConstraint=eastwest;top=0;left=0;right=0;bottom=0;" vertex="1" parent="Tj-MRy4mNyoVC88zkxaC-16">
          <mxGeometry y="120" width="180" height="50" as="geometry" />
        </mxCell>
        <mxCell id="Tj-MRy4mNyoVC88zkxaC-27" value="" style="shape=partialRectangle;connectable=0;fillColor=none;top=0;left=0;bottom=0;right=0;editable=1;overflow=hidden;whiteSpace=wrap;html=1;" vertex="1" parent="Tj-MRy4mNyoVC88zkxaC-26">
          <mxGeometry width="30" height="50" as="geometry">
            <mxRectangle width="30" height="50" as="alternateBounds" />
          </mxGeometry>
        </mxCell>
        <mxCell id="Tj-MRy4mNyoVC88zkxaC-28" value="전화번호&lt;br&gt;&lt;br&gt;이메일" style="shape=partialRectangle;connectable=0;fillColor=none;top=0;left=0;bottom=0;right=0;align=left;spacingLeft=6;overflow=hidden;whiteSpace=wrap;html=1;" vertex="1" parent="Tj-MRy4mNyoVC88zkxaC-26">
          <mxGeometry x="30" width="150" height="50" as="geometry">
            <mxRectangle width="150" height="50" as="alternateBounds" />
          </mxGeometry>
        </mxCell>
        <mxCell id="Tj-MRy4mNyoVC88zkxaC-30" value="개념적모델링&lt;br&gt;ERD" style="text;html=1;align=center;verticalAlign=middle;resizable=0;points=[];autosize=1;strokeColor=none;fillColor=none;" vertex="1" parent="1">
          <mxGeometry x="80" y="220" width="100" height="40" as="geometry" />
        </mxCell>
        <mxCell id="Tj-MRy4mNyoVC88zkxaC-31" value="논리적인 모델링&lt;br&gt;RM(관계모델)&lt;br&gt;-PK, FK 결정" style="text;html=1;strokeColor=none;fillColor=none;align=center;verticalAlign=middle;whiteSpace=wrap;rounded=0;" vertex="1" parent="1">
          <mxGeometry x="70" y="460" width="120" height="30" as="geometry" />
        </mxCell>
        <mxCell id="Tj-MRy4mNyoVC88zkxaC-32" value="테이블 정의서&lt;br&gt;(반드시 문서화)" style="text;html=1;strokeColor=none;fillColor=none;align=center;verticalAlign=middle;whiteSpace=wrap;rounded=0;" vertex="1" parent="1">
          <mxGeometry x="70" y="690" width="120" height="30" as="geometry" />
        </mxCell>
        <mxCell id="Tj-MRy4mNyoVC88zkxaC-33" value="물리적인 모델링(DataBase)" style="text;html=1;strokeColor=none;fillColor=none;align=left;verticalAlign=middle;whiteSpace=wrap;rounded=0;" vertex="1" parent="1">
          <mxGeometry x="70" y="780" width="120" height="30" as="geometry" />
        </mxCell>
      </root>
    </mxGraphModel>
  </diagram>
</mxfile>
